<svg width="385" height="385" viewBox="0 0 385 385" fill="none" xmlns="http://www.w3.org/2000/svg">
<circle opacity="0.1" cx="190.614" cy="193.147" r="51.7008" fill="url(#paint0_linear_62_605)"/>
<circle opacity="0.1" cx="190.614" cy="193.147" r="72.8259" fill="url(#paint1_linear_62_605)"/>
<path fill-rule="evenodd" clip-rule="evenodd" d="M194.793 215.22L215.356 194.792C215.409 194.735 215.464 194.68 215.521 194.627C216.055 194.134 216.755 193.861 217.482 193.862C219.08 193.862 220.377 195.159 220.377 196.757V217.486C220.377 219.084 219.08 220.382 217.482 220.382H167.546C165.948 220.382 164.65 219.084 164.65 217.486L164.65 196.757C164.65 195.159 165.948 193.862 167.546 193.862C168.383 193.862 169.138 194.218 169.666 194.787L190.231 215.22C190.611 215.618 191.586 216.332 192.512 216.332C193.438 216.332 194.21 215.786 194.793 215.22Z" fill="#246CD9"/>
<path fill-rule="evenodd" clip-rule="evenodd" d="M216.599 164.655C216.719 164.648 216.839 164.648 216.959 164.655C218.741 164.749 220.159 166.225 220.159 168.03C220.159 169.052 219.705 169.968 218.988 170.588L194.702 194.874C194.074 195.459 193.248 195.783 192.39 195.782C191.908 195.782 191.432 195.68 190.992 195.482C190.553 195.284 190.16 194.994 189.841 194.633L165.702 170.48C165.369 170.165 165.104 169.785 164.923 169.364C164.743 168.943 164.649 168.489 164.65 168.03C164.65 166.165 166.165 164.65 168.03 164.65C168.091 164.65 168.151 164.652 168.211 164.655H216.599Z" fill="#246CD9"/>
<g opacity="0.4">
<g opacity="0.3">
<circle cx="193.63" cy="193.63" r="107.64" stroke="url(#paint2_linear_62_605)" stroke-width="1.96224"/>
<circle cx="193.04" cy="193.039" r="134.206" stroke="url(#paint3_linear_62_605)" stroke-width="1.96224"/>
<circle cx="192.449" cy="192.449" r="158.409" stroke="url(#paint4_linear_62_605)" stroke-width="1.96224"/>
<circle cx="192.449" cy="192.449" r="191.468" stroke="url(#paint5_linear_62_605)" stroke-width="1.96224"/>
</g>
<circle opacity="0.3" cx="266.606" cy="272.939" r="17.0982" fill="url(#paint6_linear_62_605)"/>
<path d="M278.638 272.624C278.638 271.07 276.747 269.597 273.847 268.683C274.516 265.641 274.219 263.22 272.908 262.446C272.606 262.264 272.253 262.178 271.868 262.178V263.244C272.081 263.244 272.253 263.287 272.397 263.369C273.029 263.742 273.303 265.162 273.09 266.99C273.039 267.439 272.955 267.913 272.853 268.396C271.942 268.166 270.947 267.989 269.902 267.875C269.275 266.99 268.624 266.186 267.969 265.483C269.484 264.034 270.906 263.24 271.872 263.24V262.173C270.594 262.173 268.921 263.11 267.23 264.737C265.538 263.12 263.866 262.192 262.588 262.192V263.259C263.55 263.259 264.976 264.048 266.491 265.488C265.841 266.191 265.19 266.99 264.572 267.875C263.522 267.989 262.527 268.166 261.616 268.401C261.51 267.922 261.431 267.458 261.375 267.014C261.156 265.186 261.426 263.766 262.053 263.388C262.193 263.302 262.374 263.264 262.588 263.264V262.197C262.197 262.197 261.844 262.283 261.537 262.465C260.232 263.24 259.939 265.655 260.613 268.688C257.722 269.606 255.84 271.075 255.84 272.624C255.84 274.179 257.732 275.652 260.631 276.566C259.962 279.608 260.26 282.028 261.57 282.803C261.872 282.985 262.225 283.071 262.616 283.071C263.893 283.071 265.566 282.133 267.258 280.507C268.949 282.124 270.622 283.052 271.9 283.052C272.29 283.052 272.644 282.966 272.95 282.784C274.256 282.009 274.549 279.593 273.875 276.561C276.756 275.647 278.638 274.174 278.638 272.624ZM272.588 269.434C272.416 270.051 272.202 270.687 271.96 271.323C271.77 270.941 271.57 270.558 271.352 270.175C271.138 269.793 270.91 269.42 270.683 269.056C271.342 269.156 271.979 269.281 272.588 269.434ZM270.46 274.528C270.097 275.174 269.725 275.786 269.34 276.355C268.647 276.417 267.946 276.451 267.239 276.451C266.538 276.451 265.836 276.417 265.148 276.36C264.762 275.791 264.386 275.183 264.024 274.542C263.67 273.916 263.35 273.28 263.057 272.639C263.345 271.998 263.67 271.357 264.019 270.73C264.381 270.084 264.753 269.472 265.139 268.903C265.831 268.841 266.533 268.807 267.239 268.807C267.941 268.807 268.643 268.841 269.33 268.898C269.716 269.467 270.092 270.075 270.455 270.716C270.808 271.342 271.129 271.979 271.421 272.62C271.129 273.26 270.808 273.901 270.46 274.528ZM271.96 273.906C272.211 274.547 272.425 275.188 272.602 275.81C271.993 275.963 271.352 276.092 270.687 276.193C270.915 275.824 271.143 275.446 271.356 275.059C271.57 274.676 271.77 274.289 271.96 273.906ZM267.249 279.01C266.816 278.551 266.384 278.039 265.957 277.479C266.375 277.498 266.802 277.513 267.235 277.513C267.671 277.513 268.104 277.503 268.526 277.479C268.108 278.039 267.676 278.551 267.249 279.01ZM263.791 276.193C263.131 276.092 262.495 275.968 261.886 275.815C262.058 275.198 262.272 274.561 262.513 273.925C262.704 274.308 262.904 274.691 263.122 275.073C263.34 275.456 263.564 275.829 263.791 276.193ZM267.225 266.239C267.657 266.698 268.09 267.21 268.517 267.769C268.099 267.75 267.671 267.736 267.239 267.736C266.802 267.736 266.37 267.745 265.947 267.769C266.366 267.21 266.798 266.698 267.225 266.239ZM263.787 269.056C263.559 269.424 263.331 269.802 263.117 270.19C262.904 270.572 262.704 270.955 262.513 271.338C262.262 270.697 262.049 270.056 261.872 269.434C262.481 269.286 263.122 269.156 263.787 269.056ZM259.581 275.045C257.936 274.322 256.872 273.375 256.872 272.624C256.872 271.873 257.936 270.921 259.581 270.204C259.981 270.027 260.418 269.869 260.868 269.721C261.133 270.658 261.482 271.634 261.914 272.634C261.486 273.629 261.142 274.6 260.882 275.532C260.422 275.384 259.985 275.222 259.581 275.045ZM262.081 281.88C261.449 281.507 261.175 280.086 261.389 278.259C261.44 277.809 261.524 277.336 261.626 276.853C262.537 277.082 263.531 277.259 264.577 277.374C265.204 278.259 265.854 279.062 266.51 279.766C264.995 281.215 263.573 282.009 262.606 282.009C262.397 282.004 262.221 281.961 262.081 281.88ZM273.104 278.235C273.322 280.062 273.052 281.483 272.425 281.861C272.286 281.947 272.105 281.985 271.891 281.985C270.929 281.985 269.502 281.196 267.987 279.756C268.638 279.053 269.289 278.254 269.907 277.369C270.957 277.254 271.951 277.077 272.862 276.843C272.969 277.326 273.052 277.79 273.104 278.235ZM274.893 275.045C274.493 275.222 274.056 275.379 273.605 275.528C273.341 274.59 272.992 273.614 272.56 272.615C272.987 271.62 273.331 270.649 273.592 269.716C274.052 269.864 274.488 270.027 274.897 270.204C276.542 270.926 277.606 271.873 277.606 272.624C277.602 273.375 276.538 274.327 274.893 275.045Z" fill="#61DAFB"/>
<path d="M267.239 274.522C268.289 274.522 269.139 273.671 269.139 272.622C269.139 271.573 268.289 270.722 267.239 270.722C266.19 270.722 265.339 271.573 265.339 272.622C265.339 273.671 266.19 274.522 267.239 274.522Z" fill="#61DAFB"/>
<circle opacity="0.3" cx="117.155" cy="84.2247" r="17.0982" fill="url(#paint7_linear_62_605)"/>
<path d="M129.187 83.9105C129.187 82.3559 127.295 80.8827 124.396 79.9691C125.065 76.927 124.768 74.5067 123.457 73.7318C123.155 73.55 122.802 73.464 122.416 73.464V74.5306C122.63 74.5306 122.802 74.5737 122.946 74.655C123.578 75.0281 123.852 76.4487 123.638 78.2759C123.587 78.7255 123.504 79.199 123.401 79.6821C122.491 79.4525 121.496 79.2756 120.451 79.1608C119.823 78.2759 119.173 77.4723 118.517 76.7691C120.032 75.3198 121.454 74.5258 122.421 74.5258V73.4592C121.143 73.4592 119.47 74.3967 117.779 76.023C116.087 74.4062 114.414 73.4783 113.136 73.4783V74.545C114.098 74.545 115.525 75.3342 117.04 76.7739C116.389 77.4771 115.739 78.2759 115.121 79.1608C114.07 79.2756 113.076 79.4525 112.165 79.6869C112.058 79.2086 111.979 78.7446 111.924 78.2998C111.705 76.4726 111.975 75.052 112.602 74.6741C112.741 74.588 112.923 74.5497 113.136 74.5497V73.4831C112.746 73.4831 112.393 73.5692 112.086 73.7509C110.78 74.5258 110.488 76.9413 111.161 79.9739C108.271 80.8923 106.389 82.3607 106.389 83.9105C106.389 85.465 108.28 86.9383 111.18 87.8518C110.511 90.894 110.808 93.3143 112.119 94.0892C112.421 94.2709 112.774 94.357 113.164 94.357C114.442 94.357 116.115 93.4195 117.806 91.7932C119.498 93.4099 121.171 94.3379 122.449 94.3379C122.839 94.3379 123.192 94.2518 123.499 94.07C124.805 93.2951 125.097 90.8796 124.424 87.8471C127.305 86.9335 129.187 85.4602 129.187 83.9105ZM123.136 80.7201C122.965 81.3371 122.751 81.9733 122.509 82.6095C122.319 82.2268 122.119 81.8441 121.9 81.4615C121.687 81.0788 121.459 80.7057 121.231 80.3422C121.891 80.4427 122.528 80.567 123.136 80.7201ZM121.008 85.8142C120.646 86.4599 120.274 87.0722 119.888 87.6414C119.196 87.7036 118.494 87.7371 117.788 87.7371C117.086 87.7371 116.385 87.7036 115.697 87.6462C115.311 87.077 114.935 86.4695 114.572 85.8286C114.219 85.202 113.898 84.5658 113.606 83.9248C113.894 83.2839 114.219 82.6429 114.568 82.0163C114.93 81.3706 115.302 80.7583 115.688 80.1891C116.38 80.127 117.082 80.0935 117.788 80.0935C118.49 80.0935 119.191 80.127 119.879 80.1844C120.265 80.7536 120.641 81.361 121.004 82.002C121.357 82.6286 121.677 83.2648 121.97 83.9057C121.677 84.5467 121.357 85.1876 121.008 85.8142ZM122.509 85.1924C122.76 85.8333 122.974 86.4743 123.15 87.0961C122.542 87.2492 121.9 87.3783 121.236 87.4788C121.464 87.1105 121.691 86.7326 121.905 86.3451C122.119 85.9625 122.319 85.575 122.509 85.1924ZM117.797 90.2961C117.365 89.8369 116.933 89.3251 116.505 88.7654C116.924 88.7846 117.351 88.7989 117.783 88.7989C118.22 88.7989 118.652 88.7894 119.075 88.7654C118.657 89.3251 118.225 89.8369 117.797 90.2961ZM114.34 87.4788C113.68 87.3783 113.043 87.2539 112.435 87.1009C112.607 86.4839 112.82 85.8477 113.062 85.2115C113.253 85.5942 113.452 85.9768 113.671 86.3595C113.889 86.7421 114.112 87.1152 114.34 87.4788ZM117.774 77.5249C118.206 77.9841 118.638 78.4959 119.066 79.0555C118.648 79.0364 118.22 79.022 117.788 79.022C117.351 79.022 116.919 79.0316 116.496 79.0555C116.914 78.4959 117.346 77.9841 117.774 77.5249ZM114.335 80.3422C114.108 80.7105 113.88 81.0884 113.666 81.4758C113.452 81.8585 113.253 82.2411 113.062 82.6238C112.811 81.9829 112.597 81.3419 112.421 80.7201C113.029 80.5718 113.671 80.4427 114.335 80.3422ZM110.13 86.3308C108.485 85.6085 107.421 84.6614 107.421 83.9105C107.421 83.1595 108.485 82.2077 110.13 81.4902C110.529 81.3132 110.966 81.1554 111.417 81.0071C111.682 81.9446 112.03 82.9204 112.463 83.9201C112.035 84.915 111.691 85.8859 111.431 86.8187C110.971 86.6704 110.534 86.5078 110.13 86.3308ZM112.63 93.166C111.998 92.7929 111.724 91.3723 111.937 89.5451C111.989 89.0955 112.072 88.6219 112.174 88.1388C113.085 88.3684 114.08 88.5454 115.125 88.6602C115.753 89.5451 116.403 90.3487 117.058 91.0518C115.543 92.5011 114.121 93.2951 113.155 93.2951C112.946 93.2904 112.769 93.2473 112.63 93.166ZM123.652 89.5212C123.871 91.3484 123.601 92.769 122.974 93.1469C122.834 93.233 122.653 93.2712 122.439 93.2712C121.478 93.2712 120.051 92.482 118.536 91.0423C119.187 90.3391 119.837 89.5403 120.455 88.6554C121.505 88.5406 122.5 88.3637 123.411 88.1293C123.518 88.6124 123.601 89.0764 123.652 89.5212ZM125.441 86.3308C125.042 86.5078 124.605 86.6656 124.154 86.8139C123.889 85.8764 123.541 84.9006 123.109 83.9009C123.536 82.906 123.88 81.935 124.14 81.0023C124.6 81.1506 125.037 81.3132 125.446 81.4902C127.091 82.2124 128.155 83.1595 128.155 83.9105C128.15 84.6614 127.086 85.6133 125.441 86.3308Z" fill="#61DAFB"/>
<path d="M117.788 85.8079C118.837 85.8079 119.688 84.9573 119.688 83.9081C119.688 82.8589 118.837 82.0083 117.788 82.0083C116.739 82.0083 115.888 82.8589 115.888 83.9081C115.888 84.9573 116.739 85.8079 117.788 85.8079Z" fill="#61DAFB"/>
<circle opacity="0.3" cx="34.8298" cy="79.1585" r="17.0982" fill="url(#paint8_linear_62_605)"/>
<path d="M46.8618 78.8443C46.8618 77.2897 44.9705 75.8165 42.0709 74.9029C42.74 71.8608 42.4426 69.4405 41.1322 68.6656C40.8301 68.4838 40.477 68.3977 40.0913 68.3977V69.4644C40.305 69.4644 40.477 69.5074 40.621 69.5887C41.253 69.9618 41.5272 71.3825 41.3134 73.2096C41.2623 73.6593 41.1787 74.1328 41.0764 74.6159C40.1656 74.3863 39.1712 74.2093 38.1256 74.0945C37.4983 73.2096 36.8478 72.4061 36.1925 71.7029C37.7074 70.2536 39.1294 69.4596 40.0959 69.4596V68.3929C38.818 68.3929 37.1452 69.3305 35.4537 70.9567C33.7622 69.34 32.0893 68.4121 30.8114 68.4121V69.4787C31.7733 69.4787 33.1999 70.268 34.7148 71.7077C34.0643 72.4108 33.4137 73.2096 32.7957 74.0945C31.7455 74.2093 30.751 74.3863 29.8402 74.6207C29.7334 74.1424 29.6544 73.6784 29.5986 73.2336C29.3802 71.4064 29.6497 69.9858 30.277 69.6079C30.4165 69.5218 30.5977 69.4835 30.8114 69.4835V68.4169C30.4211 68.4169 30.0679 68.503 29.7612 68.6847C28.4555 69.4596 28.1627 71.8751 28.8365 74.9077C25.9461 75.8261 24.0641 77.2945 24.0641 78.8443C24.0641 80.3988 25.9554 81.872 28.8551 82.7856C28.1859 85.8277 28.4833 88.2481 29.7938 89.0229C30.0958 89.2047 30.449 89.2908 30.8393 89.2908C32.1172 89.2908 33.7901 88.3533 35.4816 86.727C37.173 88.3437 38.8459 89.2717 40.1238 89.2717C40.5141 89.2717 40.8673 89.1856 41.174 89.0038C42.4798 88.2289 42.7725 85.8134 42.0987 82.7808C44.9798 81.8672 46.8618 80.394 46.8618 78.8443ZM40.8115 75.6539C40.6396 76.2709 40.4259 76.9071 40.1842 77.5432C39.9937 77.1606 39.7939 76.7779 39.5755 76.3953C39.3617 76.0126 39.134 75.6395 38.9063 75.276C39.5662 75.3764 40.2028 75.5008 40.8115 75.6539ZM38.6833 80.748C38.3208 81.3937 37.9491 82.006 37.5634 82.5752C36.871 82.6373 36.1693 82.6708 35.463 82.6708C34.7613 82.6708 34.0596 82.6373 33.3719 82.5799C32.9862 82.0107 32.6098 81.4033 32.2473 80.7623C31.8942 80.1357 31.5735 79.4996 31.2808 78.8586C31.5689 78.2177 31.8942 77.5767 32.2427 76.9501C32.6051 76.3044 32.9769 75.6921 33.3626 75.1229C34.055 75.0607 34.7566 75.0273 35.463 75.0273C36.1647 75.0273 36.8663 75.0607 37.5541 75.1181C37.9398 75.6873 38.3162 76.2948 38.6786 76.9358C39.0318 77.5624 39.3524 78.1985 39.6452 78.8395C39.3524 79.4804 39.0318 80.1214 38.6833 80.748ZM40.1842 80.1262C40.4352 80.7671 40.6489 81.4081 40.8255 82.0299C40.2167 82.1829 39.5755 82.3121 38.911 82.4125C39.1387 82.0442 39.3664 81.6664 39.5801 81.2789C39.7939 80.8963 39.9937 80.5088 40.1842 80.1262ZM35.4723 85.2298C35.0401 84.7707 34.6079 84.2589 34.1804 83.6992C34.5987 83.7184 35.0262 83.7327 35.4583 83.7327C35.8951 83.7327 36.3273 83.7231 36.7502 83.6992C36.3319 84.2589 35.8998 84.7707 35.4723 85.2298ZM32.015 82.4125C31.3551 82.3121 30.7185 82.1877 30.1098 82.0347C30.2817 81.4176 30.4954 80.7815 30.7371 80.1453C30.9276 80.528 31.1274 80.9106 31.3458 81.2933C31.5642 81.6759 31.7873 82.049 32.015 82.4125ZM35.449 72.4587C35.8812 72.9179 36.3134 73.4297 36.7409 73.9893C36.3227 73.9702 35.8951 73.9558 35.463 73.9558C35.0262 73.9558 34.594 73.9654 34.1711 73.9893C34.5894 73.4297 35.0215 72.9179 35.449 72.4587ZM32.0103 75.276C31.7826 75.6443 31.5549 76.0222 31.3412 76.4096C31.1274 76.7923 30.9276 77.1749 30.7371 77.5576C30.4862 76.9166 30.2724 76.2757 30.0958 75.6539C30.7046 75.5056 31.3458 75.3764 32.0103 75.276ZM27.8049 81.2646C26.1599 80.5423 25.0958 79.5952 25.0958 78.8443C25.0958 78.0933 26.1599 77.1414 27.8049 76.424C28.2045 76.247 28.6413 76.0891 29.0921 75.9409C29.357 76.8784 29.7055 77.8541 30.1376 78.8538C29.7101 79.8487 29.3663 80.8197 29.106 81.7525C28.646 81.6042 28.2092 81.4415 27.8049 81.2646ZM30.3049 88.0998C29.6729 87.7267 29.3988 86.3061 29.6125 84.4789C29.6637 84.0293 29.7473 83.5557 29.8495 83.0726C30.7603 83.3022 31.7548 83.4792 32.8003 83.594C33.4276 84.4789 34.0782 85.2825 34.7334 85.9856C33.2185 87.4349 31.7966 88.2289 30.83 88.2289C30.6209 88.2241 30.4443 88.1811 30.3049 88.0998ZM41.3274 84.455C41.5458 86.2822 41.2762 87.7028 40.6489 88.0806C40.5095 88.1667 40.3283 88.205 40.1145 88.205C39.1526 88.205 37.726 87.4158 36.2111 85.976C36.8617 85.2729 37.5123 84.4741 38.1303 83.5892C39.1805 83.4744 40.1749 83.2974 41.0857 83.0631C41.1926 83.5462 41.2762 84.0101 41.3274 84.455ZM43.1164 81.2646C42.7168 81.4415 42.28 81.5994 41.8292 81.7477C41.5643 80.8102 41.2158 79.8344 40.7837 78.8347C41.2112 77.8398 41.5551 76.8688 41.8153 75.9361C42.2753 76.0843 42.7121 76.247 43.1211 76.424C44.7661 77.1462 45.8302 78.0933 45.8302 78.8443C45.8255 79.5952 44.7614 80.5471 43.1164 81.2646Z" fill="#61DAFB"/>
<path d="M35.463 80.7417C36.5122 80.7417 37.3628 79.8911 37.3628 78.8419C37.3628 77.7926 36.5122 76.9421 35.463 76.9421C34.4137 76.9421 33.5632 77.7926 33.5632 78.8419C33.5632 79.8911 34.4137 80.7417 35.463 80.7417Z" fill="#61DAFB"/>
<circle opacity="0.3" cx="327.098" cy="182.098" r="17.0982" fill="url(#paint9_linear_62_605)"/>
<path d="M339.13 181.784C339.13 180.229 337.239 178.756 334.339 177.843C335.009 174.8 334.711 172.38 333.401 171.605C333.099 171.424 332.746 171.337 332.36 171.337V172.404C332.574 172.404 332.746 172.447 332.89 172.528C333.522 172.902 333.796 174.322 333.582 176.149C333.531 176.599 333.447 177.072 333.345 177.556C332.434 177.326 331.44 177.149 330.394 177.034C329.767 176.149 329.116 175.346 328.461 174.643C329.976 173.193 331.398 172.399 332.364 172.399V171.333C331.087 171.333 329.414 172.27 327.722 173.896C326.031 172.28 324.358 171.352 323.08 171.352V172.418C324.042 172.418 325.468 173.208 326.983 174.647C326.333 175.351 325.682 176.149 325.064 177.034C324.014 177.149 323.02 177.326 322.109 177.56C322.002 177.082 321.923 176.618 321.867 176.173C321.649 174.346 321.918 172.925 322.546 172.548C322.685 172.461 322.866 172.423 323.08 172.423V171.357C322.69 171.357 322.336 171.443 322.03 171.624C320.724 172.399 320.431 174.815 321.105 177.847C318.215 178.766 316.333 180.234 316.333 181.784C316.333 183.339 318.224 184.812 321.124 185.725C320.454 188.767 320.752 191.188 322.062 191.963C322.364 192.144 322.718 192.23 323.108 192.23C324.386 192.23 326.059 191.293 327.75 189.667C329.442 191.283 331.114 192.211 332.392 192.211C332.783 192.211 333.136 192.125 333.443 191.943C334.748 191.169 335.041 188.753 334.367 185.721C337.248 184.807 339.13 183.334 339.13 181.784ZM333.08 178.594C332.908 179.211 332.694 179.847 332.453 180.483C332.262 180.1 332.062 179.718 331.844 179.335C331.63 178.952 331.403 178.579 331.175 178.216C331.835 178.316 332.471 178.44 333.08 178.594ZM330.952 183.688C330.589 184.333 330.218 184.946 329.832 185.515C329.14 185.577 328.438 185.611 327.732 185.611C327.03 185.611 326.328 185.577 325.64 185.52C325.255 184.95 324.878 184.343 324.516 183.702C324.163 183.075 323.842 182.439 323.549 181.798C323.837 181.157 324.163 180.516 324.511 179.89C324.874 179.244 325.245 178.632 325.631 178.063C326.324 178 327.025 177.967 327.732 177.967C328.433 177.967 329.135 178 329.823 178.058C330.208 178.627 330.585 179.235 330.947 179.875C331.3 180.502 331.621 181.138 331.914 181.779C331.621 182.42 331.3 183.061 330.952 183.688ZM332.453 183.066C332.704 183.707 332.917 184.348 333.094 184.97C332.485 185.123 331.844 185.252 331.18 185.352C331.407 184.984 331.635 184.606 331.849 184.219C332.062 183.836 332.262 183.449 332.453 183.066ZM327.741 188.17C327.309 187.71 326.877 187.199 326.449 186.639C326.867 186.658 327.295 186.672 327.727 186.672C328.164 186.672 328.596 186.663 329.019 186.639C328.601 187.199 328.168 187.71 327.741 188.17ZM324.284 185.352C323.624 185.252 322.987 185.127 322.378 184.974C322.55 184.357 322.764 183.721 323.006 183.085C323.196 183.468 323.396 183.85 323.614 184.233C323.833 184.616 324.056 184.989 324.284 185.352ZM327.718 175.398C328.15 175.858 328.582 176.369 329.009 176.929C328.591 176.91 328.164 176.896 327.732 176.896C327.295 176.896 326.863 176.905 326.44 176.929C326.858 176.369 327.29 175.858 327.718 175.398ZM324.279 178.216C324.051 178.584 323.823 178.962 323.61 179.349C323.396 179.732 323.196 180.115 323.006 180.497C322.755 179.856 322.541 179.215 322.364 178.594C322.973 178.445 323.614 178.316 324.279 178.216ZM320.073 184.204C318.428 183.482 317.364 182.535 317.364 181.784C317.364 181.033 318.428 180.081 320.073 179.364C320.473 179.187 320.91 179.029 321.361 178.881C321.626 179.818 321.974 180.794 322.406 181.794C321.979 182.788 321.635 183.759 321.375 184.692C320.915 184.544 320.478 184.381 320.073 184.204ZM322.573 191.039C321.942 190.666 321.667 189.246 321.881 187.419C321.932 186.969 322.016 186.495 322.118 186.012C323.029 186.242 324.023 186.419 325.069 186.534C325.696 187.419 326.347 188.222 327.002 188.925C325.487 190.375 324.065 191.169 323.099 191.169C322.889 191.164 322.713 191.121 322.573 191.039ZM333.596 187.395C333.814 189.222 333.545 190.642 332.917 191.02C332.778 191.106 332.597 191.145 332.383 191.145C331.421 191.145 329.995 190.355 328.48 188.916C329.13 188.213 329.781 187.414 330.399 186.529C331.449 186.414 332.443 186.237 333.354 186.003C333.461 186.486 333.545 186.95 333.596 187.395ZM335.385 184.204C334.985 184.381 334.549 184.539 334.098 184.687C333.833 183.75 333.484 182.774 333.052 181.774C333.48 180.779 333.824 179.808 334.084 178.876C334.544 179.024 334.981 179.187 335.39 179.364C337.035 180.086 338.099 181.033 338.099 181.784C338.094 182.535 337.03 183.487 335.385 184.204Z" fill="#61DAFB"/>
<path d="M327.731 183.681C328.781 183.681 329.631 182.831 329.631 181.782C329.631 180.732 328.781 179.882 327.731 179.882C326.682 179.882 325.832 180.732 325.832 181.782C325.832 182.831 326.682 183.681 327.731 183.681Z" fill="#61DAFB"/>
<circle opacity="0.3" cx="82.9581" cy="307.135" r="17.0982" fill="url(#paint10_linear_62_605)"/>
<path d="M94.9903 306.821C94.9903 305.266 93.099 303.793 90.1993 302.879C90.8685 299.837 90.5711 297.417 89.2607 296.642C88.9586 296.46 88.6055 296.374 88.2198 296.374V297.441C88.4335 297.441 88.6055 297.484 88.7495 297.565C89.3815 297.938 89.6557 299.359 89.4419 301.186C89.3908 301.636 89.3071 302.109 89.2049 302.592C88.2941 302.363 87.2997 302.186 86.2541 302.071C85.6268 301.186 84.9762 300.383 84.321 299.679C85.8359 298.23 87.2579 297.436 88.2244 297.436V296.37C86.9465 296.37 85.2736 297.307 83.5822 298.933C81.8907 297.317 80.2178 296.389 78.9399 296.389V297.455C79.9018 297.455 81.3284 298.245 82.8433 299.684C82.1927 300.387 81.5422 301.186 80.9241 302.071C79.8739 302.186 78.8795 302.363 77.9687 302.597C77.8618 302.119 77.7828 301.655 77.7271 301.21C77.5087 299.383 77.7782 297.962 78.4055 297.584C78.5449 297.498 78.7262 297.46 78.9399 297.46V296.393C78.5496 296.393 78.1964 296.48 77.8897 296.661C76.5839 297.436 76.2912 299.852 76.965 302.884C74.0746 303.803 72.1926 305.271 72.1926 306.821C72.1926 308.375 74.0839 309.849 76.9836 310.762C76.3144 313.804 76.6118 316.225 77.9222 316.999C78.2243 317.181 78.5775 317.267 78.9678 317.267C80.2457 317.267 81.9186 316.33 83.61 314.704C85.3015 316.32 86.9744 317.248 88.2523 317.248C88.6426 317.248 88.9958 317.162 89.3025 316.98C90.6083 316.205 90.901 313.79 90.2272 310.757C93.1083 309.844 94.9903 308.371 94.9903 306.821ZM88.94 303.63C88.7681 304.247 88.5543 304.884 88.3127 305.52C88.1222 305.137 87.9224 304.754 87.704 304.372C87.4902 303.989 87.2625 303.616 87.0348 303.253C87.6947 303.353 88.3313 303.477 88.94 303.63ZM86.8118 308.725C86.4493 309.37 86.0775 309.983 85.6919 310.552C84.9995 310.614 84.2978 310.647 83.5915 310.647C82.8898 310.647 82.1881 310.614 81.5004 310.557C81.1147 309.987 80.7383 309.38 80.3758 308.739C80.0226 308.112 79.702 307.476 79.4093 306.835C79.6974 306.194 80.0226 305.553 80.3712 304.927C80.7336 304.281 81.1054 303.669 81.4911 303.099C82.1834 303.037 82.8851 303.004 83.5915 303.004C84.2931 303.004 84.9948 303.037 85.6826 303.095C86.0682 303.664 86.4446 304.271 86.8071 304.912C87.1603 305.539 87.4809 306.175 87.7737 306.816C87.4809 307.457 87.1603 308.098 86.8118 308.725ZM88.3127 308.103C88.5636 308.744 88.7774 309.385 88.954 310.006C88.3452 310.16 87.704 310.289 87.0395 310.389C87.2671 310.021 87.4948 309.643 87.7086 309.255C87.9224 308.873 88.1222 308.485 88.3127 308.103ZM83.6008 313.206C83.1686 312.747 82.7364 312.235 82.3089 311.676C82.7271 311.695 83.1546 311.709 83.5868 311.709C84.0236 311.709 84.4558 311.7 84.8786 311.676C84.4604 312.235 84.0283 312.747 83.6008 313.206ZM80.1435 310.389C79.4836 310.289 78.847 310.164 78.2382 310.011C78.4102 309.394 78.6239 308.758 78.8656 308.122C79.0561 308.505 79.2559 308.887 79.4743 309.27C79.6927 309.652 79.9158 310.026 80.1435 310.389ZM83.5775 300.435C84.0097 300.894 84.4418 301.406 84.8694 301.966C84.4511 301.947 84.0236 301.932 83.5915 301.932C83.1546 301.932 82.7225 301.942 82.2996 301.966C82.7178 301.406 83.15 300.894 83.5775 300.435ZM80.1388 303.253C79.9111 303.621 79.6834 303.999 79.4697 304.386C79.2559 304.769 79.0561 305.151 78.8656 305.534C78.6146 304.893 78.4009 304.252 78.2243 303.63C78.833 303.482 79.4743 303.353 80.1388 303.253ZM75.9334 309.241C74.2884 308.519 73.2242 307.572 73.2242 306.821C73.2242 306.07 74.2884 305.118 75.9334 304.401C76.333 304.224 76.7698 304.066 77.2206 303.917C77.4854 304.855 77.834 305.831 78.2661 306.83C77.8386 307.825 77.4947 308.796 77.2345 309.729C76.7745 309.581 76.3377 309.418 75.9334 309.241ZM78.4334 316.076C77.8014 315.703 77.5273 314.283 77.741 312.455C77.7921 312.006 77.8758 311.532 77.978 311.049C78.8888 311.279 79.8832 311.456 80.9288 311.571C81.5561 312.455 82.2067 313.259 82.8619 313.962C81.347 315.411 79.9251 316.205 78.9585 316.205C78.7494 316.201 78.5728 316.158 78.4334 316.076ZM89.4558 312.432C89.6742 314.259 89.4047 315.679 88.7774 316.057C88.638 316.143 88.4568 316.182 88.243 316.182C87.2811 316.182 85.8545 315.392 84.3396 313.953C84.9902 313.249 85.6407 312.451 86.2588 311.566C87.309 311.451 88.3034 311.274 89.2142 311.04C89.3211 311.523 89.4047 311.987 89.4558 312.432ZM91.2449 309.241C90.8453 309.418 90.4084 309.576 89.9577 309.724C89.6928 308.787 89.3443 307.811 88.9121 306.811C89.3397 305.816 89.6835 304.845 89.9438 303.913C90.4038 304.061 90.8406 304.224 91.2495 304.401C92.8945 305.123 93.9587 306.07 93.9587 306.821C93.954 307.572 92.8899 308.524 91.2449 309.241Z" fill="#61DAFB"/>
<path d="M83.5914 308.718C84.6407 308.718 85.4912 307.868 85.4912 306.818C85.4912 305.769 84.6407 304.919 83.5914 304.919C82.5422 304.919 81.6916 305.769 81.6916 306.818C81.6916 307.868 82.5422 308.718 83.5914 308.718Z" fill="#61DAFB"/>
<circle opacity="0.3" cx="332.466" cy="327.4" r="17.0982" fill="url(#paint11_linear_62_605)"/>
<path d="M344.498 327.085C344.498 325.531 342.607 324.058 339.707 323.144C340.376 320.102 340.079 317.682 338.768 316.907C338.466 316.725 338.113 316.639 337.727 316.639V317.706C337.941 317.706 338.113 317.749 338.257 317.83C338.889 318.203 339.163 319.624 338.95 321.451C338.898 321.9 338.815 322.374 338.713 322.857C337.802 322.628 336.807 322.451 335.762 322.336C335.134 321.451 334.484 320.647 333.829 319.944C335.344 318.495 336.765 317.701 337.732 317.701V316.634C336.454 316.634 334.781 317.572 333.09 319.198C331.398 317.581 329.725 316.653 328.448 316.653V317.72C329.409 317.72 330.836 318.509 332.351 319.949C331.7 320.652 331.05 321.451 330.432 322.336C329.382 322.451 328.387 322.628 327.476 322.862C327.369 322.384 327.29 321.92 327.235 321.475C327.016 319.648 327.286 318.227 327.913 317.849C328.053 317.763 328.234 317.725 328.448 317.725V316.658C328.057 316.658 327.704 316.744 327.397 316.926C326.092 317.701 325.799 320.116 326.473 323.149C323.582 324.067 321.7 325.536 321.7 327.085C321.7 328.64 323.592 330.113 326.491 331.027C325.822 334.069 326.119 336.489 327.43 337.264C327.732 337.446 328.085 337.532 328.475 337.532C329.753 337.532 331.426 336.594 333.118 334.968C334.809 336.585 336.482 337.513 337.76 337.513C338.15 337.513 338.503 337.427 338.81 337.245C340.116 336.47 340.409 334.055 339.735 331.022C342.616 330.108 344.498 328.635 344.498 327.085ZM338.448 323.895C338.276 324.512 338.062 325.148 337.82 325.784C337.63 325.402 337.43 325.019 337.212 324.636C336.998 324.254 336.77 323.881 336.542 323.517C337.202 323.618 337.839 323.742 338.448 323.895ZM336.319 328.989C335.957 329.635 335.585 330.247 335.199 330.816C334.507 330.879 333.805 330.912 333.099 330.912C332.397 330.912 331.696 330.879 331.008 330.821C330.622 330.252 330.246 329.644 329.883 329.004C329.53 328.377 329.21 327.741 328.917 327.1C329.205 326.459 329.53 325.818 329.879 325.191C330.241 324.546 330.613 323.933 330.999 323.364C331.691 323.302 332.393 323.268 333.099 323.268C333.801 323.268 334.502 323.302 335.19 323.359C335.576 323.929 335.952 324.536 336.315 325.177C336.668 325.804 336.989 326.44 337.281 327.081C336.989 327.722 336.668 328.363 336.319 328.989ZM337.82 328.367C338.071 329.008 338.285 329.649 338.462 330.271C337.853 330.424 337.212 330.553 336.547 330.654C336.775 330.285 337.002 329.908 337.216 329.52C337.43 329.137 337.63 328.75 337.82 328.367ZM333.108 333.471C332.676 333.012 332.244 332.5 331.817 331.94C332.235 331.96 332.662 331.974 333.094 331.974C333.531 331.974 333.963 331.964 334.386 331.94C333.968 332.5 333.536 333.012 333.108 333.471ZM329.651 330.654C328.991 330.553 328.355 330.429 327.746 330.276C327.918 329.659 328.132 329.023 328.373 328.387C328.564 328.769 328.764 329.152 328.982 329.534C329.2 329.917 329.423 330.29 329.651 330.654ZM333.085 320.7C333.517 321.159 333.949 321.671 334.377 322.231C333.959 322.211 333.531 322.197 333.099 322.197C332.662 322.197 332.23 322.207 331.807 322.231C332.225 321.671 332.658 321.159 333.085 320.7ZM329.646 323.517C329.419 323.886 329.191 324.263 328.977 324.651C328.764 325.033 328.564 325.416 328.373 325.799C328.122 325.158 327.909 324.517 327.732 323.895C328.341 323.747 328.982 323.618 329.646 323.517ZM325.441 329.506C323.796 328.784 322.732 327.836 322.732 327.085C322.732 326.335 323.796 325.383 325.441 324.665C325.841 324.488 326.277 324.33 326.728 324.182C326.993 325.12 327.342 326.095 327.774 327.095C327.346 328.09 327.002 329.061 326.742 329.994C326.282 329.845 325.845 329.683 325.441 329.506ZM327.941 336.341C327.309 335.968 327.035 334.547 327.249 332.72C327.3 332.27 327.383 331.797 327.486 331.314C328.396 331.543 329.391 331.72 330.436 331.835C331.064 332.72 331.714 333.524 332.37 334.227C330.855 335.676 329.433 336.47 328.466 336.47C328.257 336.465 328.08 336.422 327.941 336.341ZM338.963 332.696C339.182 334.523 338.912 335.944 338.285 336.322C338.146 336.408 337.964 336.446 337.751 336.446C336.789 336.446 335.362 335.657 333.847 334.217C334.498 333.514 335.148 332.715 335.766 331.83C336.817 331.716 337.811 331.539 338.722 331.304C338.829 331.787 338.912 332.251 338.963 332.696ZM340.753 329.506C340.353 329.683 339.916 329.841 339.465 329.989C339.2 329.051 338.852 328.076 338.42 327.076C338.847 326.081 339.191 325.11 339.451 324.177C339.911 324.326 340.348 324.488 340.757 324.665C342.402 325.387 343.466 326.335 343.466 327.085C343.462 327.836 342.398 328.788 340.753 329.506Z" fill="#61DAFB"/>
<path d="M333.099 328.983C334.148 328.983 334.999 328.132 334.999 327.083C334.999 326.034 334.148 325.183 333.099 325.183C332.05 325.183 331.199 326.034 331.199 327.083C331.199 328.132 332.05 328.983 333.099 328.983Z" fill="#61DAFB"/>
</g>
<defs>
<linearGradient id="paint0_linear_62_605" x1="242.315" y1="141.446" x2="118.551" y2="205.513" gradientUnits="userSpaceOnUse">
<stop stop-color="#246CD9"/>
<stop offset="1" stop-color="#328FA4"/>
</linearGradient>
<linearGradient id="paint1_linear_62_605" x1="263.44" y1="120.321" x2="89.1061" y2="210.565" gradientUnits="userSpaceOnUse">
<stop stop-color="#246CD9"/>
<stop offset="1" stop-color="#328FA4"/>
</linearGradient>
<linearGradient id="paint2_linear_62_605" x1="302.251" y1="85.0082" x2="42.2285" y2="219.61" gradientUnits="userSpaceOnUse">
<stop stop-color="#246CD9"/>
<stop offset="1" stop-color="#328FA4"/>
</linearGradient>
<linearGradient id="paint3_linear_62_605" x1="328.226" y1="57.8527" x2="4.61073" y2="225.373" gradientUnits="userSpaceOnUse">
<stop stop-color="#246CD9"/>
<stop offset="1" stop-color="#328FA4"/>
</linearGradient>
<linearGradient id="paint4_linear_62_605" x1="351.84" y1="33.0587" x2="-29.7158" y2="230.572" gradientUnits="userSpaceOnUse">
<stop stop-color="#246CD9"/>
<stop offset="1" stop-color="#328FA4"/>
</linearGradient>
<linearGradient id="paint5_linear_62_605" x1="384.898" y1="0" x2="-75.7945" y2="238.479" gradientUnits="userSpaceOnUse">
<stop stop-color="#246CD9"/>
<stop offset="1" stop-color="#328FA4"/>
</linearGradient>
<linearGradient id="paint6_linear_62_605" x1="283.704" y1="255.84" x2="242.774" y2="277.028" gradientUnits="userSpaceOnUse">
<stop stop-color="#246CD9"/>
<stop offset="1" stop-color="#328FA4"/>
</linearGradient>
<linearGradient id="paint7_linear_62_605" x1="134.253" y1="67.1265" x2="93.3224" y2="88.3142" gradientUnits="userSpaceOnUse">
<stop stop-color="#246CD9"/>
<stop offset="1" stop-color="#328FA4"/>
</linearGradient>
<linearGradient id="paint8_linear_62_605" x1="51.928" y1="62.0603" x2="10.9975" y2="83.2481" gradientUnits="userSpaceOnUse">
<stop stop-color="#246CD9"/>
<stop offset="1" stop-color="#328FA4"/>
</linearGradient>
<linearGradient id="paint9_linear_62_605" x1="344.196" y1="165" x2="303.266" y2="186.188" gradientUnits="userSpaceOnUse">
<stop stop-color="#246CD9"/>
<stop offset="1" stop-color="#328FA4"/>
</linearGradient>
<linearGradient id="paint10_linear_62_605" x1="100.056" y1="290.037" x2="59.1259" y2="311.225" gradientUnits="userSpaceOnUse">
<stop stop-color="#246CD9"/>
<stop offset="1" stop-color="#328FA4"/>
</linearGradient>
<linearGradient id="paint11_linear_62_605" x1="349.564" y1="310.302" x2="308.634" y2="331.489" gradientUnits="userSpaceOnUse">
<stop stop-color="#246CD9"/>
<stop offset="1" stop-color="#328FA4"/>
</linearGradient>
</defs>
</svg>
