<svg width="189" height="189" viewBox="0 0 189 189" fill="none" xmlns="http://www.w3.org/2000/svg">
<g opacity="0.4">
<circle opacity="0.3" cx="94.5003" cy="94.4999" r="57.9742" fill="url(#paint0_linear_40_2460)"/>
<circle opacity="0.2" cx="94.5" cy="94.4999" r="79.38" fill="url(#paint1_linear_40_2460)"/>
<circle opacity="0.2" cx="94.5" cy="94.5" r="94.5" fill="url(#paint2_linear_40_2460)"/>
</g>
<rect x="31.12" y="94.9514" width="19.0044" height="19.0044" rx="2.37555" transform="rotate(-45 31.12 94.9514)" fill="url(#paint3_linear_40_2460)"/>
<rect x="47.9176" y="78.1536" width="19.0044" height="19.0044" rx="2.37555" transform="rotate(-45 47.9176 78.1536)" fill="url(#paint4_linear_40_2460)"/>
<rect x="64.7155" y="61.356" width="19.0044" height="19.0044" rx="2.37555" transform="rotate(-45 64.7155 61.356)" fill="url(#paint5_linear_40_2460)"/>
<rect x="81.5132" y="44.5583" width="19.0044" height="19.0044" rx="2.37555" transform="rotate(-45 81.5132 44.5583)" fill="url(#paint6_linear_40_2460)"/>
<rect x="47.9176" y="111.749" width="19.0044" height="19.0044" rx="2.37555" transform="rotate(-45 47.9176 111.749)" fill="url(#paint7_linear_40_2460)"/>
<rect x="64.7155" y="94.9514" width="19.0044" height="19.0044" rx="2.37555" transform="rotate(-45 64.7155 94.9514)" fill="url(#paint8_linear_40_2460)"/>
<rect x="81.5132" y="78.1536" width="19.0044" height="19.0044" rx="2.37555" transform="rotate(-45 81.5132 78.1536)" fill="url(#paint9_linear_40_2460)"/>
<rect x="98.3105" y="61.356" width="19.0044" height="19.0044" rx="2.37555" transform="rotate(-45 98.3105 61.356)" fill="url(#paint10_linear_40_2460)"/>
<rect x="64.7155" y="128.547" width="19.0044" height="19.0044" rx="2.37555" transform="rotate(-45 64.7155 128.547)" fill="url(#paint11_linear_40_2460)"/>
<rect x="81.5132" y="145.344" width="19.0044" height="19.0044" rx="2.37555" transform="rotate(-45 81.5132 145.344)" fill="url(#paint12_linear_40_2460)"/>
<rect x="81.5132" y="111.749" width="19.0044" height="19.0044" rx="2.37555" transform="rotate(-45 81.5132 111.749)" fill="url(#paint13_linear_40_2460)"/>
<rect x="98.3105" y="128.547" width="19.0044" height="19.0044" rx="2.37555" transform="rotate(-45 98.3105 128.547)" fill="url(#paint14_linear_40_2460)"/>
<rect x="98.3105" y="94.9514" width="19.0044" height="19.0044" rx="2.37555" transform="rotate(-45 98.3105 94.9514)" fill="url(#paint15_linear_40_2460)"/>
<rect x="115.109" y="111.749" width="19.0044" height="19.0044" rx="2.37555" transform="rotate(-45 115.109 111.749)" fill="url(#paint16_linear_40_2460)"/>
<rect x="115.109" y="78.1536" width="19.0044" height="19.0044" rx="2.37555" transform="rotate(-45 115.109 78.1536)" fill="url(#paint17_linear_40_2460)"/>
<rect x="131.906" y="94.9514" width="19.0044" height="19.0044" rx="2.37555" transform="rotate(-45 131.906 94.9514)" fill="url(#paint18_linear_40_2460)"/>
<defs>
<linearGradient id="paint0_linear_40_2460" x1="152.474" y1="36.5258" x2="13.6935" y2="108.366" gradientUnits="userSpaceOnUse">
<stop stop-color="#246CD9"/>
<stop offset="1" stop-color="#328FA4"/>
</linearGradient>
<linearGradient id="paint1_linear_40_2460" x1="173.88" y1="15.1199" x2="-16.1431" y2="113.486" gradientUnits="userSpaceOnUse">
<stop stop-color="#246CD9"/>
<stop offset="1" stop-color="#328FA4"/>
</linearGradient>
<linearGradient id="paint2_linear_40_2460" x1="189" y1="0" x2="-37.218" y2="117.102" gradientUnits="userSpaceOnUse">
<stop stop-color="#246CD9"/>
<stop offset="1" stop-color="#328FA4"/>
</linearGradient>
<linearGradient id="paint3_linear_40_2460" x1="50.1244" y1="94.9514" x2="27.3776" y2="106.726" gradientUnits="userSpaceOnUse">
<stop stop-color="#246CD9"/>
<stop offset="1" stop-color="#328FA4"/>
</linearGradient>
<linearGradient id="paint4_linear_40_2460" x1="66.922" y1="78.1536" x2="44.1752" y2="89.9285" gradientUnits="userSpaceOnUse">
<stop stop-color="#246CD9"/>
<stop offset="1" stop-color="#328FA4"/>
</linearGradient>
<linearGradient id="paint5_linear_40_2460" x1="83.7199" y1="61.356" x2="60.9731" y2="73.1309" gradientUnits="userSpaceOnUse">
<stop stop-color="#246CD9"/>
<stop offset="1" stop-color="#328FA4"/>
</linearGradient>
<linearGradient id="paint6_linear_40_2460" x1="100.518" y1="44.5583" x2="77.7708" y2="56.3333" gradientUnits="userSpaceOnUse">
<stop stop-color="#246CD9"/>
<stop offset="1" stop-color="#328FA4"/>
</linearGradient>
<linearGradient id="paint7_linear_40_2460" x1="66.922" y1="111.749" x2="44.1752" y2="123.524" gradientUnits="userSpaceOnUse">
<stop stop-color="#246CD9"/>
<stop offset="1" stop-color="#328FA4"/>
</linearGradient>
<linearGradient id="paint8_linear_40_2460" x1="83.7199" y1="94.9514" x2="60.9731" y2="106.726" gradientUnits="userSpaceOnUse">
<stop stop-color="#246CD9"/>
<stop offset="1" stop-color="#328FA4"/>
</linearGradient>
<linearGradient id="paint9_linear_40_2460" x1="100.518" y1="78.1536" x2="77.7708" y2="89.9285" gradientUnits="userSpaceOnUse">
<stop stop-color="#246CD9"/>
<stop offset="1" stop-color="#328FA4"/>
</linearGradient>
<linearGradient id="paint10_linear_40_2460" x1="117.315" y1="61.356" x2="94.5682" y2="73.1309" gradientUnits="userSpaceOnUse">
<stop stop-color="#246CD9"/>
<stop offset="1" stop-color="#328FA4"/>
</linearGradient>
<linearGradient id="paint11_linear_40_2460" x1="83.7199" y1="128.547" x2="60.9731" y2="140.322" gradientUnits="userSpaceOnUse">
<stop stop-color="#246CD9"/>
<stop offset="1" stop-color="#328FA4"/>
</linearGradient>
<linearGradient id="paint12_linear_40_2460" x1="100.518" y1="145.344" x2="77.7708" y2="157.119" gradientUnits="userSpaceOnUse">
<stop stop-color="#246CD9"/>
<stop offset="1" stop-color="#328FA4"/>
</linearGradient>
<linearGradient id="paint13_linear_40_2460" x1="100.518" y1="111.749" x2="77.7708" y2="123.524" gradientUnits="userSpaceOnUse">
<stop stop-color="#246CD9"/>
<stop offset="1" stop-color="#328FA4"/>
</linearGradient>
<linearGradient id="paint14_linear_40_2460" x1="117.315" y1="128.547" x2="94.5682" y2="140.322" gradientUnits="userSpaceOnUse">
<stop stop-color="#246CD9"/>
<stop offset="1" stop-color="#328FA4"/>
</linearGradient>
<linearGradient id="paint15_linear_40_2460" x1="117.315" y1="94.9514" x2="94.5682" y2="106.726" gradientUnits="userSpaceOnUse">
<stop stop-color="#246CD9"/>
<stop offset="1" stop-color="#328FA4"/>
</linearGradient>
<linearGradient id="paint16_linear_40_2460" x1="134.113" y1="111.749" x2="111.366" y2="123.524" gradientUnits="userSpaceOnUse">
<stop stop-color="#246CD9"/>
<stop offset="1" stop-color="#328FA4"/>
</linearGradient>
<linearGradient id="paint17_linear_40_2460" x1="134.113" y1="78.1536" x2="111.366" y2="89.9285" gradientUnits="userSpaceOnUse">
<stop stop-color="#246CD9"/>
<stop offset="1" stop-color="#328FA4"/>
</linearGradient>
<linearGradient id="paint18_linear_40_2460" x1="150.91" y1="94.9514" x2="128.164" y2="106.726" gradientUnits="userSpaceOnUse">
<stop stop-color="#246CD9"/>
<stop offset="1" stop-color="#328FA4"/>
</linearGradient>
</defs>
</svg>
