<?xml version="1.0" encoding="UTF-8" standalone="no"?><!DOCTYPE svg PUBLIC "-//W3C//DTD SVG 1.1//EN" "http://www.w3.org/Graphics/SVG/1.1/DTD/svg11.dtd"><svg width="100%" height="100%" viewBox="0 0 50 50" version="1.1" xmlns="http://www.w3.org/2000/svg" xmlns:xlink="http://www.w3.org/1999/xlink" xml:space="preserve" xmlns:serif="http://www.serif.com/" style="fill-rule:evenodd;clip-rule:evenodd;stroke-linejoin:round;stroke-miterlimit:2;"><rect id="_50-full" serif:id="50-full" x="0.527" y="0" width="50" height="50" style="fill:none;"/><clipPath id="_clip1"><rect x="0.527" y="0" width="50" height="50"/></clipPath><g clip-path="url(#_clip1)"><g><path d="M27.572,47.921l0,0l18.45,-18.411c0.047,-0.051 0.097,-0.101 0.148,-0.148l0,0l0,0c0.463,-0.426 1.081,-0.687 1.759,-0.687c1.434,0 2.598,1.165 2.598,2.598l0,16.131c0,1.434 -1.164,2.598 -2.598,2.598l-44.804,0c-1.434,0 -2.598,-1.164 -2.598,-2.598l0,0c0,0 0,-16.131 0,-16.131c0,-1.433 1.164,-2.598 2.598,-2.598c0.751,0 1.429,0.32 1.903,0.83l0,0l18.451,18.416c0.341,0.356 1.216,0.997 2.047,0.997c0.83,0 1.523,-0.49 2.046,-0.997Z" style="fill:#06f;"/><path d="M47.244,0.002c0.054,-0.002 0.108,-0.004 0.162,-0.004c0.054,0 0.108,0.002 0.161,0.004l0.001,0c1.599,0.085 2.871,1.41 2.871,3.029c0,0.917 -0.408,1.739 -1.051,2.295l0,0l-21.79,21.79c-0.542,0.506 -1.276,0.815 -2.074,0.815c-0.907,0 -1.731,-0.4 -2.287,-1.031l-21.659,-21.671l0,0c-0.581,-0.552 -0.944,-1.333 -0.944,-2.198c0,-1.674 1.359,-3.033 3.033,-3.033c0.055,0 0.109,0.002 0.162,0.004l0,0l43.415,0Z" style="fill:#06f;"/></g></g></svg>