<?xml version="1.0" encoding="UTF-8" standalone="no"?><!DOCTYPE svg PUBLIC "-//W3C//DTD SVG 1.1//EN" "http://www.w3.org/Graphics/SVG/1.1/DTD/svg11.dtd">
<svg width="100%" height="100%" viewBox="0 0 401 81" version="1.1"
  xmlns="http://www.w3.org/2000/svg"
  xmlns:xlink="http://www.w3.org/1999/xlink" xml:space="preserve"
  xmlns:serif="http://www.serif.com/" style="fill-rule:evenodd;clip-rule:evenodd;stroke-linejoin:round;stroke-miterlimit:2;">
  <g>
    <g>
      <path d="M145.127,53.689l12.955,-18.653l0,26.27l9.896,0l0,-41.984l-9.776,0l-16.134,24.051l-16.074,-24.051l-9.776,0l0,41.984l9.896,0l0,-26.27l12.955,18.653l6.058,0Z" style="fill:#000;fill-rule:nonzero;"/>
      <path d="M222.258,40.314c0,-12.356 -8.696,-21.712 -23.271,-21.712c-14.515,0 -23.211,9.356 -23.211,21.712c0,12.355 8.696,21.712 23.211,21.712c14.575,0 23.271,-9.357 23.271,-21.712Zm-36.106,0c0,-8.457 5.038,-13.735 12.835,-13.735c7.857,0 12.835,5.278 12.835,13.735c0,8.457 -4.978,13.735 -12.835,13.735c-7.797,0 -12.835,-5.278 -12.835,-13.735Z" style="fill:#000;fill-rule:nonzero;"/>
      <path d="M267.422,32.936c0,-8.756 -7.437,-13.614 -19.613,-13.614l-17.753,0l0,41.984l10.256,0l0,-14.814l8.037,0l10.916,14.814l11.456,0l-12.896,-16.134c5.818,-1.859 9.597,-6.358 9.597,-12.236Zm-10.256,0c0,3.839 -3.119,6.178 -9.297,6.178l-7.557,0l0,-12.415l7.557,0c6.178,0 9.297,2.399 9.297,6.237Z" style="fill:#000;fill-rule:nonzero;"/>
      <path d="M276.718,61.306l10.257,0l0,-16.614l19.672,0l0,-7.617l-19.672,0l0,-10.136l22.191,0l0,-7.617l-32.448,0l0,41.984Z" style="fill:#000;fill-rule:nonzero;"/>
      <path d="M315.404,61.306l33.108,0l0,-7.617l-22.852,0l0,-10.136l19.673,0l0,-7.618l-19.673,0l0,-8.996l22.192,0l0,-7.617l-32.448,0l0,41.984Z" style="fill:#000;fill-rule:nonzero;"/>
      <path d="M400.393,40.314c0,-12.356 -8.697,-21.712 -23.272,-21.712c-14.514,0 -23.211,9.356 -23.211,21.712c0,12.355 8.697,21.712 23.211,21.712c14.575,0 23.272,-9.357 23.272,-21.712Zm-36.107,0c0,-8.457 5.038,-13.735 12.835,-13.735c7.858,0 12.836,5.278 12.836,13.735c0,8.457 -4.978,13.735 -12.836,13.735c-7.797,0 -12.835,-5.278 -12.835,-13.735Z" style="fill:#000;fill-rule:nonzero;"/>
    </g>
    <g>
      <path d="M43.923,76.99l0,0l29.519,-29.457c0.077,-0.082 0.156,-0.161 0.238,-0.237l0.001,0l0,0c0.74,-0.682 1.729,-1.099 2.814,-1.099c2.294,0 4.156,1.863 4.156,4.157l0,25.809c0,2.294 -1.862,4.157 -4.156,4.157l-71.687,0c-2.294,0 -4.157,-1.863 -4.157,-4.157l0,0c0,0 0,-25.809 0,-25.809c0,-2.294 1.863,-4.157 4.157,-4.157c1.202,0 2.286,0.512 3.045,1.328l0,0l29.522,29.465c0.545,0.57 1.945,1.596 3.274,1.596c1.329,0 2.437,-0.784 3.274,-1.596Z" style="fill:#06f;"/>
      <path d="M75.398,0.321c0.086,-0.005 0.172,-0.007 0.259,-0.007c0.087,0 0.173,0.002 0.259,0.007l0,0c2.558,0.134 4.594,2.254 4.594,4.846c0,1.466 -0.652,2.782 -1.681,3.672l0,0l-34.864,34.864c-0.867,0.808 -2.041,1.303 -3.319,1.303c-1.451,0 -2.77,-0.639 -3.659,-1.65l-34.654,-34.672l0,0c-0.93,-0.885 -1.51,-2.134 -1.51,-3.517c0,-2.679 2.174,-4.853 4.853,-4.853c0.087,0 0.173,0.002 0.259,0.007l0,0l69.463,0Z" style="fill:#06f;"/>
    </g>
  </g>
</svg>