<svg width="117" height="117" viewBox="0 0 117 117" fill="none" xmlns="http://www.w3.org/2000/svg">
<g opacity="0.4">
<circle opacity="0.3" cx="58.5" cy="58.5" r="35.8888" fill="url(#paint0_linear_62_604)"/>
<circle opacity="0.2" cx="58.5" cy="58.5" r="49.14" fill="url(#paint1_linear_62_604)"/>
<circle opacity="0.2" cx="58.5" cy="58.5" r="58.5" fill="url(#paint2_linear_62_604)"/>
</g>
<rect x="42.8866" y="81.324" width="5.04741" height="5.04741" rx="2.52371" fill="url(#paint3_linear_62_604)"/>
<rect x="46.5573" y="73.9822" width="5.04741" height="5.04741" rx="2.52371" fill="url(#paint4_linear_62_604)"/>
<rect x="52.9814" y="68.0172" width="5.04741" height="5.04741" rx="2.52371" fill="url(#paint5_linear_62_604)"/>
<rect x="61.2408" y="68.0172" width="5.04741" height="5.04741" rx="2.52371" fill="url(#paint6_linear_62_604)"/>
<rect x="67.6647" y="73.9822" width="5.04741" height="5.04741" rx="2.52371" fill="url(#paint7_linear_62_604)"/>
<rect x="69.959" y="81.324" width="5.04741" height="5.04741" rx="2.52371" fill="url(#paint8_linear_62_604)"/>
<rect x="27.2855" y="76.8141" width="9.95061" height="9.95061" rx="4.9753" fill="url(#paint9_linear_62_604)"/>
<rect x="34.5223" y="62.3404" width="9.95061" height="9.95061" rx="4.9753" fill="url(#paint10_linear_62_604)"/>
<rect x="47.1867" y="50.5807" width="9.95061" height="9.95061" rx="4.9753" fill="url(#paint11_linear_62_604)"/>
<rect x="63.4696" y="50.5807" width="9.95061" height="9.95061" rx="4.9753" fill="url(#paint12_linear_62_604)"/>
<rect x="76.1339" y="62.3404" width="9.95061" height="9.95061" rx="4.9753" fill="url(#paint13_linear_62_604)"/>
<rect x="80.6569" y="76.8141" width="9.95061" height="9.95061" rx="4.9753" fill="url(#paint14_linear_62_604)"/>
<rect x="8.9313" y="70.9146" width="15.7191" height="15.7191" rx="7.85954" fill="url(#paint15_linear_62_604)"/>
<rect x="20.3633" y="48.0504" width="15.7191" height="15.7191" rx="7.85954" fill="url(#paint16_linear_62_604)"/>
<rect x="40.3694" y="29.4733" width="15.7191" height="15.7191" rx="7.85954" fill="url(#paint17_linear_62_604)"/>
<rect x="66.0916" y="29.4733" width="15.7191" height="15.7191" rx="7.85954" fill="url(#paint18_linear_62_604)"/>
<rect x="86.0977" y="48.0504" width="15.7191" height="15.7191" rx="7.85954" fill="url(#paint19_linear_62_604)"/>
<rect x="93.2427" y="70.9146" width="15.7191" height="15.7191" rx="7.85954" fill="url(#paint20_linear_62_604)"/>
<defs>
<linearGradient id="paint0_linear_62_604" x1="94.3888" y1="22.6112" x2="8.47678" y2="67.0838" gradientUnits="userSpaceOnUse">
<stop stop-color="#246CD9"/>
<stop offset="1" stop-color="#328FA4"/>
</linearGradient>
<linearGradient id="paint1_linear_62_604" x1="107.64" y1="9.35999" x2="-9.99339" y2="70.2532" gradientUnits="userSpaceOnUse">
<stop stop-color="#246CD9"/>
<stop offset="1" stop-color="#328FA4"/>
</linearGradient>
<linearGradient id="paint2_linear_62_604" x1="117" y1="0" x2="-23.0397" y2="72.4919" gradientUnits="userSpaceOnUse">
<stop stop-color="#246CD9"/>
<stop offset="1" stop-color="#328FA4"/>
</linearGradient>
<linearGradient id="paint3_linear_62_604" x1="47.934" y1="81.324" x2="41.8927" y2="84.4513" gradientUnits="userSpaceOnUse">
<stop stop-color="#246CD9"/>
<stop offset="1" stop-color="#328FA4"/>
</linearGradient>
<linearGradient id="paint4_linear_62_604" x1="51.6048" y1="73.9822" x2="45.5634" y2="77.1096" gradientUnits="userSpaceOnUse">
<stop stop-color="#246CD9"/>
<stop offset="1" stop-color="#328FA4"/>
</linearGradient>
<linearGradient id="paint5_linear_62_604" x1="58.0288" y1="68.0172" x2="51.9874" y2="71.1445" gradientUnits="userSpaceOnUse">
<stop stop-color="#246CD9"/>
<stop offset="1" stop-color="#328FA4"/>
</linearGradient>
<linearGradient id="paint6_linear_62_604" x1="66.2882" y1="68.0172" x2="60.2468" y2="71.1445" gradientUnits="userSpaceOnUse">
<stop stop-color="#246CD9"/>
<stop offset="1" stop-color="#328FA4"/>
</linearGradient>
<linearGradient id="paint7_linear_62_604" x1="72.7121" y1="73.9822" x2="66.6708" y2="77.1096" gradientUnits="userSpaceOnUse">
<stop stop-color="#246CD9"/>
<stop offset="1" stop-color="#328FA4"/>
</linearGradient>
<linearGradient id="paint8_linear_62_604" x1="75.0065" y1="81.324" x2="68.9651" y2="84.4513" gradientUnits="userSpaceOnUse">
<stop stop-color="#246CD9"/>
<stop offset="1" stop-color="#328FA4"/>
</linearGradient>
<linearGradient id="paint9_linear_62_604" x1="37.2361" y1="76.8141" x2="25.326" y2="82.9794" gradientUnits="userSpaceOnUse">
<stop stop-color="#246CD9"/>
<stop offset="1" stop-color="#328FA4"/>
</linearGradient>
<linearGradient id="paint10_linear_62_604" x1="44.4729" y1="62.3404" x2="32.5628" y2="68.5057" gradientUnits="userSpaceOnUse">
<stop stop-color="#246CD9"/>
<stop offset="1" stop-color="#328FA4"/>
</linearGradient>
<linearGradient id="paint11_linear_62_604" x1="57.1373" y1="50.5807" x2="45.2273" y2="56.746" gradientUnits="userSpaceOnUse">
<stop stop-color="#246CD9"/>
<stop offset="1" stop-color="#328FA4"/>
</linearGradient>
<linearGradient id="paint12_linear_62_604" x1="73.4202" y1="50.5807" x2="61.5101" y2="56.746" gradientUnits="userSpaceOnUse">
<stop stop-color="#246CD9"/>
<stop offset="1" stop-color="#328FA4"/>
</linearGradient>
<linearGradient id="paint13_linear_62_604" x1="86.0845" y1="62.3404" x2="74.1744" y2="68.5057" gradientUnits="userSpaceOnUse">
<stop stop-color="#246CD9"/>
<stop offset="1" stop-color="#328FA4"/>
</linearGradient>
<linearGradient id="paint14_linear_62_604" x1="90.6075" y1="76.8141" x2="78.6974" y2="82.9794" gradientUnits="userSpaceOnUse">
<stop stop-color="#246CD9"/>
<stop offset="1" stop-color="#328FA4"/>
</linearGradient>
<linearGradient id="paint15_linear_62_604" x1="24.6504" y1="70.9146" x2="5.83589" y2="80.6539" gradientUnits="userSpaceOnUse">
<stop stop-color="#246CD9"/>
<stop offset="1" stop-color="#328FA4"/>
</linearGradient>
<linearGradient id="paint16_linear_62_604" x1="36.0824" y1="48.0504" x2="17.2679" y2="57.7897" gradientUnits="userSpaceOnUse">
<stop stop-color="#246CD9"/>
<stop offset="1" stop-color="#328FA4"/>
</linearGradient>
<linearGradient id="paint17_linear_62_604" x1="56.0885" y1="29.4733" x2="37.274" y2="39.2126" gradientUnits="userSpaceOnUse">
<stop stop-color="#246CD9"/>
<stop offset="1" stop-color="#328FA4"/>
</linearGradient>
<linearGradient id="paint18_linear_62_604" x1="81.8107" y1="29.4733" x2="62.9962" y2="39.2126" gradientUnits="userSpaceOnUse">
<stop stop-color="#246CD9"/>
<stop offset="1" stop-color="#328FA4"/>
</linearGradient>
<linearGradient id="paint19_linear_62_604" x1="101.817" y1="48.0504" x2="83.0022" y2="57.7897" gradientUnits="userSpaceOnUse">
<stop stop-color="#246CD9"/>
<stop offset="1" stop-color="#328FA4"/>
</linearGradient>
<linearGradient id="paint20_linear_62_604" x1="108.962" y1="70.9146" x2="90.1473" y2="80.6539" gradientUnits="userSpaceOnUse">
<stop stop-color="#246CD9"/>
<stop offset="1" stop-color="#328FA4"/>
</linearGradient>
</defs>
</svg>
