<svg width="131" height="131" viewBox="0 0 131 131" fill="none" xmlns="http://www.w3.org/2000/svg">
<path d="M96.3637 39.6988C94.5805 37.9147 92.4632 36.4994 90.1329 35.5339C87.8025 34.5683 85.3048 34.0713 82.7823 34.0713C80.2598 34.0713 77.7621 34.5683 75.4317 35.5339C73.1014 36.4994 70.9841 37.9147 69.2009 39.6988L65.5 43.3996L61.7992 39.6988C58.1972 36.0967 53.3118 34.0732 48.2178 34.0732C43.1238 34.0732 38.2384 36.0967 34.6364 39.6988C31.0343 43.3008 29.0108 48.1862 29.0108 53.2802C29.0108 58.3742 31.0343 63.2596 34.6364 66.8616L38.3372 70.5624L65.5 97.7253L92.6629 70.5624L96.3637 66.8616C98.1478 65.0784 99.563 62.9611 100.529 60.6307C101.494 58.3004 101.991 55.8026 101.991 53.2802C101.991 50.7577 101.494 48.26 100.529 45.9296C99.563 43.5993 98.1478 41.482 96.3637 39.6988Z" fill="url(#paint0_linear_62_649)"/>
<g opacity="0.2">
<path d="M105.927 31.704C103.591 29.3671 100.818 27.5133 97.7657 26.2485C94.7133 24.9837 91.4416 24.3328 88.1375 24.3328C84.8334 24.3328 81.5617 24.9837 78.5093 26.2485C75.4569 27.5133 72.6835 29.3671 70.3477 31.704L65.5002 36.5516L60.6526 31.704C55.9344 26.9858 49.5353 24.3352 42.8628 24.3352C36.1904 24.3352 29.7912 26.9858 25.0731 31.704C20.355 36.4221 17.7043 42.8213 17.7043 49.4937C17.7043 56.1661 20.355 62.5653 25.0731 67.2834L29.9207 72.131L65.5002 107.711L101.08 72.131L105.927 67.2834C108.264 64.9477 110.118 62.1743 111.383 59.1219C112.647 56.0695 113.298 52.7978 113.298 49.4937C113.298 46.1896 112.647 42.9179 111.383 39.8655C110.118 36.8131 108.264 34.0398 105.927 31.704Z" fill="url(#paint1_linear_62_649)"/>
</g>
<g opacity="0.2">
<path d="M113.752 25.1629C110.964 22.3737 107.654 20.1611 104.011 18.6515C100.367 17.142 96.4624 16.365 92.5188 16.365C88.5753 16.365 84.6703 17.142 81.0271 18.6515C77.3839 20.1611 74.0738 22.3737 71.2859 25.1629L65.5001 30.9487L59.7142 25.1629C54.0829 19.5316 46.4452 16.3679 38.4813 16.3679C30.5174 16.3679 22.8797 19.5316 17.2484 25.1629C11.6171 30.7942 8.45345 38.4319 8.45345 46.3958C8.45345 54.3597 11.6171 61.9974 17.2484 67.6287L23.0342 73.4145L65.5001 115.88L107.966 73.4145L113.752 67.6287C116.541 64.8408 118.753 61.5307 120.263 57.8875C121.773 54.2443 122.55 50.3394 122.55 46.3958C122.55 42.4522 121.773 38.5473 120.263 34.9041C118.753 31.2608 116.541 27.9507 113.752 25.1629Z" fill="url(#paint2_linear_62_649)"/>
</g>
<path d="M53 54.7153V56.2126H57.6501V69.8074H60.95V56.2126H65.6001V54.7428C65.6001 53.9161 65.6001 53.2456 65.5643 53.2272C65.5643 53.1997 62.7295 53.1905 59.2866 53.1905L53.0268 53.218V54.7245L53 54.7153ZM73.8988 53.1813C74.811 53.4017 75.5085 53.8243 76.1345 54.4948C76.4654 54.8623 76.9572 55.5053 76.993 55.6706C76.993 55.7257 75.4459 56.8004 74.5069 57.3975C74.4712 57.4251 74.3281 57.2689 74.185 57.0301C73.72 56.3503 73.246 56.0564 72.5038 56.0013C71.4307 55.9278 70.7153 56.5065 70.7153 57.471C70.7153 57.7649 70.7689 57.9303 70.8762 58.1691C71.1177 58.6743 71.5648 58.9775 72.9509 59.6021C75.5085 60.7319 76.6174 61.476 77.2881 62.5415C78.0482 63.7356 78.2181 65.6095 77.7084 67.0149C77.1361 68.549 75.741 69.5869 73.7468 69.9268C73.1208 70.037 71.69 70.0187 71.0193 69.8992C69.5885 69.6237 68.2203 68.8888 67.3797 67.9427C67.0488 67.5753 66.4139 66.5924 66.4497 66.5281L66.7895 66.3076L68.1309 65.5085L69.1414 64.9022L69.3739 65.2237C69.669 65.7014 70.3307 66.3444 70.7153 66.5648C71.8778 67.1803 73.4338 67.0976 74.2029 66.3811C74.5338 66.0688 74.6768 65.7381 74.6768 65.2788C74.6768 64.8563 74.6142 64.6634 74.4086 64.3419C74.1224 63.9377 73.5501 63.607 71.9404 62.8722C70.0893 62.0638 69.3023 61.5495 68.569 60.7595C68.1487 60.2818 67.7642 59.5378 67.5854 58.9223C67.4512 58.3896 67.4065 57.0852 67.5317 56.5616C67.9162 54.7245 69.2666 53.4385 71.1982 53.0711C71.8242 52.9425 73.2997 52.9976 73.9167 53.1629L73.8988 53.1813Z" fill="white"/>
<defs>
<linearGradient id="paint0_linear_62_649" x1="101.991" y1="34.0713" x2="20.0834" y2="82.6834" gradientUnits="userSpaceOnUse">
<stop stop-color="#246CD9"/>
<stop offset="1" stop-color="#328FA4"/>
</linearGradient>
<linearGradient id="paint1_linear_62_649" x1="113.298" y1="24.3328" x2="6.01078" y2="88.0077" gradientUnits="userSpaceOnUse">
<stop stop-color="#246CD9"/>
<stop offset="1" stop-color="#328FA4"/>
</linearGradient>
<linearGradient id="paint2_linear_62_649" x1="122.55" y1="16.365" x2="-5.50337" y2="92.3642" gradientUnits="userSpaceOnUse">
<stop stop-color="#246CD9"/>
<stop offset="1" stop-color="#328FA4"/>
</linearGradient>
</defs>
</svg>
