<svg class="icon"
  xmlns="http://www.w3.org/2000/svg" width="30px" height="30px" viewBox="0 0 513 513">
  <g id="chrome" fill="none" fill-rule="nonzero" stroke="none" stroke-width="1">
    <path fill="#F44336" d="M493.248,160.021 L256.021,160.021 C203.002,159.969 159.979,202.907 159.926,255.926 C159.91,272.394 164.13,288.589 172.181,302.954 L53.568,99.434 C139.961,-12.381 300.641,-32.989 412.456,53.404 C448.365,81.149 476.249,117.946 493.248,160.021 Z"></path>
    <path fill="#FFC107" d="M512.021,256.021 C511.903,397.357 397.357,511.903 256.021,512.021 C245.317,512.061 234.624,511.348 224.021,509.888 L339.221,304.021 C365.624,258.057 349.885,199.396 304.021,172.821 C289.5,164.414 273.013,159.997 256.234,160.021 L493.247,160.021 C505.705,190.491 512.083,223.103 512.021,256.021 Z"></path>
    <path fill="#4CAF50" d="M339.221,304.021 L224.021,509.888 L223.808,509.888 C83.62,492.176 -15.666,364.172 2.046,223.984 C7.779,178.609 25.57,135.6 53.568,99.434 L172.181,302.954 L172.821,304.021 C199.272,349.971 257.964,365.778 303.914,339.328 C318.592,330.879 330.773,318.698 339.221,304.021 Z"></path>
    <path fill="#F44336" d="M339.221,304.021 C312.77,349.971 254.078,365.778 208.128,339.328 C193.451,330.879 181.27,318.698 172.821,304.021 L172.181,302.954 C146.26,256.703 162.742,198.196 208.993,172.275 C223.359,164.224 239.554,160.004 256.021,160.02 L256.234,160.02 C273.013,159.996 289.5,164.413 304.021,172.82 C349.886,199.396 365.624,258.057 339.221,304.021 Z"></path>
    <path fill="#2196F3" d="M339.221,304.021 C312.77,349.971 254.078,365.778 208.128,339.328 C193.451,330.879 181.27,318.698 172.821,304.021 L172.181,302.954 C146.26,256.703 162.742,198.196 208.993,172.275 C223.359,164.224 239.554,160.004 256.021,160.02 L256.234,160.02 C273.013,159.996 289.5,164.413 304.021,172.82 C349.886,199.396 365.624,258.057 339.221,304.021 Z"></path>
    <path fill="#FAFAFA" d="M255.659,362.688 C237.061,362.686 218.791,357.785 202.688,348.48 C186.451,339.089 172.966,325.597 163.584,309.355 C134.129,258.337 151.609,193.101 202.627,163.646 C218.86,154.274 237.277,149.345 256.022,149.355 C314.932,149.309 362.726,197.029 362.771,255.939 C362.786,274.691 357.856,293.115 348.48,309.355 C329.256,342.405 293.893,362.724 255.659,362.688 Z M256.213,170.688 C225.6,170.525 197.258,186.818 181.994,213.355 C158.43,254.215 172.451,306.442 213.311,330.006 C254.171,353.57 306.398,339.549 329.962,298.689 C353.526,257.875 339.542,205.686 298.728,182.121 C285.806,174.661 271.154,170.719 256.234,170.689 L256.213,170.689 L256.213,170.688 Z"></path>
  </g>
</svg>