<?xml version="1.0" encoding="UTF-8" standalone="no"?>
<!DOCTYPE svg PUBLIC "-//W3C//DTD SVG 1.1//EN" "http://www.w3.org/Graphics/SVG/1.1/DTD/svg11.dtd">
<svg width="100%" height="100%" viewBox="0 0 1351 273" version="1.1" xmlns="http://www.w3.org/2000/svg" xmlns:xlink="http://www.w3.org/1999/xlink" xml:space="preserve" xmlns:serif="http://www.serif.com/" style="fill-rule:evenodd;clip-rule:evenodd;stroke-linejoin:round;stroke-miterlimit:2;">
    <g id="Tavola-da-disegno1" serif:id="Tavola da disegno1" transform="matrix(0.989019,0,0,0.355469,0,0)">
        <rect x="0" y="0" width="1366" height="768" style="fill:none;"/>
        <g transform="matrix(1.17652,0,0,4.0878,-27.4709,-1256)">
            <path d="M615,443.796C615,434.526 605.601,427 594.025,427L379.384,427C367.808,427 358.409,434.526 358.409,443.796L358.409,477.389C358.409,486.659 367.808,494.185 379.384,494.185L594.025,494.185C605.601,494.185 615,486.659 615,477.389L615,443.796Z" style="fill:rgb(0,102,255);"/>
        </g>
        <g transform="matrix(1.17082,0,0,3.25757,-79.9187,-842.63)">
            <text x="433.523px" y="473.486px" style="font-family:'ArticoExpanded', 'Artico Expanded', sans-serif;font-stretch:expanded;font-size:64px;fill:white;">B<tspan x="486.771px 535.411px " y="473.486px 473.486px ">ET</tspan></text>
            <text x="583.987px" y="473.486px" style="font-family:'ArticoExpanded', 'Artico Expanded', sans-serif;font-stretch:expanded;font-size:64px;fill:white;">A</text>
        </g>
        <g transform="matrix(17.0745,0,0,47.5062,-3737.73,-12591.9)">
            <g>
                <g>
                    <g transform="matrix(12,0,0,12,241.035,273.682)">
                        <path d="M0.562,-0.127L0.778,-0.438L0.778,0L0.943,0L0.943,-0.7L0.78,-0.7L0.511,-0.299L0.243,-0.7L0.08,-0.7L0.08,0L0.245,0L0.245,-0.438L0.461,-0.127L0.562,-0.127Z" style="fill-rule:nonzero;"/>
                    </g>
                    <g transform="matrix(12,0,0,12,253.431,273.682)">
                        <path d="M0.815,-0.35C0.815,-0.556 0.67,-0.712 0.427,-0.712C0.185,-0.712 0.04,-0.556 0.04,-0.35C0.04,-0.144 0.185,0.012 0.427,0.012C0.67,0.012 0.815,-0.144 0.815,-0.35ZM0.213,-0.35C0.213,-0.491 0.297,-0.579 0.427,-0.579C0.558,-0.579 0.641,-0.491 0.641,-0.35C0.641,-0.209 0.558,-0.121 0.427,-0.121C0.297,-0.121 0.213,-0.209 0.213,-0.35Z" style="fill-rule:nonzero;"/>
                    </g>
                    <g transform="matrix(12,0,0,12,263.811,273.682)">
                        <path d="M0.703,-0.473C0.703,-0.619 0.579,-0.7 0.376,-0.7L0.08,-0.7L0.08,0L0.251,0L0.251,-0.247L0.385,-0.247L0.567,0L0.758,0L0.543,-0.269C0.64,-0.3 0.703,-0.375 0.703,-0.473ZM0.532,-0.473C0.532,-0.409 0.48,-0.37 0.377,-0.37L0.251,-0.37L0.251,-0.577L0.377,-0.577C0.48,-0.577 0.532,-0.537 0.532,-0.473Z" style="fill-rule:nonzero;"/>
                    </g>
                    <g transform="matrix(12,0,0,12,273.147,273.682)">
                        <path d="M0.08,0L0.251,0L0.251,-0.277L0.579,-0.277L0.579,-0.404L0.251,-0.404L0.251,-0.573L0.621,-0.573L0.621,-0.7L0.08,-0.7L0.08,0Z" style="fill-rule:nonzero;"/>
                    </g>
                    <g transform="matrix(12,0,0,12,280.887,273.682)">
                        <path d="M0.08,0L0.632,0L0.632,-0.127L0.251,-0.127L0.251,-0.296L0.579,-0.296L0.579,-0.423L0.251,-0.423L0.251,-0.573L0.621,-0.573L0.621,-0.7L0.08,-0.7L0.08,0Z" style="fill-rule:nonzero;"/>
                    </g>
                    <g transform="matrix(12,0,0,12,289.071,273.682)">
                        <path d="M0.815,-0.35C0.815,-0.556 0.67,-0.712 0.427,-0.712C0.185,-0.712 0.04,-0.556 0.04,-0.35C0.04,-0.144 0.185,0.012 0.427,0.012C0.67,0.012 0.815,-0.144 0.815,-0.35ZM0.213,-0.35C0.213,-0.491 0.297,-0.579 0.427,-0.579C0.558,-0.579 0.641,-0.491 0.641,-0.35C0.641,-0.209 0.558,-0.121 0.427,-0.121C0.297,-0.121 0.213,-0.209 0.213,-0.35Z" style="fill-rule:nonzero;"/>
                    </g>
                </g>
            </g>
        </g>
        <g transform="matrix(2.56448,0,0,7.13515,-4419.36,-1912.98)">
            <g>
                <g transform="matrix(1.33181,0,0,1.33181,1223,-165.932)">
                    <path d="M418.941,400.56L418.941,400.56L448.46,371.104C448.536,371.022 448.616,370.943 448.698,370.867L448.698,370.867L448.698,370.867C449.439,370.185 450.427,369.768 451.512,369.768C453.806,369.768 455.669,371.631 455.669,373.925C455.669,373.925 455.651,402.157 455.651,402.157C455.651,404.451 453.789,406.314 451.495,406.314L379.808,406.314C377.514,406.314 375.651,404.451 375.651,402.157L375.651,402.157C375.651,402.157 375.669,373.925 375.669,373.925C375.669,371.631 377.532,369.768 379.826,369.768C381.028,369.768 382.111,370.279 382.871,371.096L382.871,371.096L412.392,400.56C412.938,401.131 414.338,402.157 415.666,402.157C416.995,402.157 418.104,401.373 418.941,400.56Z" style="fill:rgb(0,102,255);"/>
                </g>
                <g transform="matrix(1.55482,0,0,1.55482,1130.3,-238.703)">
                    <path d="M445.417,326.314C445.49,326.31 445.564,326.308 445.638,326.308C445.713,326.308 445.787,326.31 445.86,326.314L445.86,326.314C448.052,326.429 449.795,328.245 449.795,330.465C449.795,331.721 449.237,332.848 448.355,333.61L448.355,333.61L418.492,363.474C417.749,364.166 416.744,364.59 415.649,364.59C414.406,364.59 413.276,364.042 412.514,363.177L382.831,333.477L382.831,333.477C382.035,332.72 381.538,331.65 381.538,330.465C381.538,328.171 383.4,326.308 385.695,326.308C385.769,326.308 385.843,326.31 385.916,326.314L385.916,326.314L445.417,326.314Z" style="fill:rgb(0,102,255);"/>
                </g>
            </g>
        </g>
    </g>
</svg>
