<?xml version="1.0" encoding="UTF-8" standalone="no"?><!DOCTYPE svg PUBLIC "-//W3C//DTD SVG 1.1//EN" "http://www.w3.org/Graphics/SVG/1.1/DTD/svg11.dtd">
<svg width="100%" height="100%" viewBox="0 0 257 256" version="1.1"
  xmlns="http://www.w3.org/2000/svg"
  xmlns:xlink="http://www.w3.org/1999/xlink" xml:space="preserve"
  xmlns:serif="http://www.serif.com/" style="fill-rule:evenodd;clip-rule:evenodd;stroke-linejoin:round;stroke-miterlimit:2;">
  <rect id="_256-full" serif:id="256-full" x="0.796" y="0" width="256" height="256" style="fill:none;"/>
  <clipPath id="_clip1">
    <rect x="0.796" y="0" width="256" height="256"/>
  </clipPath>
  <g clip-path="url(#_clip1)">
    <g>
      <path d="M139.265,245.344l0,0l94.463,-94.26c0.243,-0.264 0.497,-0.517 0.761,-0.76l0.001,0l0,0c2.369,-2.182 5.532,-3.515 9.004,-3.515c7.342,0 13.302,5.96 13.302,13.302l0,82.587c0,7.341 -5.96,13.302 -13.302,13.302l-229.395,0c-7.342,0 -13.303,-5.96 -13.303,-13.302l0,0c0,0 0,-82.587 0,-82.587c0,-7.342 5.961,-13.302 13.303,-13.302c3.846,0 7.313,1.636 9.742,4.249l0,0l94.47,94.286c1.745,1.826 6.225,5.109 10.477,5.109c4.253,0 7.8,-2.509 10.477,-5.109Z" style="fill:#06f;"/>
      <path d="M239.987,0.003c0.274,-0.014 0.55,-0.022 0.828,-0.022c0.277,0 0.553,0.008 0.828,0.022l0.001,0c8.186,0.432 14.7,7.215 14.7,15.508c0,4.692 -2.085,8.901 -5.38,11.75l0,0l-111.565,111.565c-2.774,2.588 -6.531,4.17 -10.62,4.17c-4.643,0 -8.863,-2.045 -11.71,-5.279l-110.892,-110.952l0,0c-2.976,-2.83 -4.832,-6.827 -4.832,-11.254c0,-8.571 6.958,-15.53 15.529,-15.53c0.278,0 0.555,0.008 0.829,0.022l0,0l222.284,0Z" style="fill:#06f;"/>
    </g>
  </g>
</svg>